# xmcd
#
# Track frame offsets:
#	150
#	21099
#	35782
#	49815
#	66886
#	90026
#	102628
#	118419
#	136979
#	149865
#	166878
#	177957
#	194983
#	210873
#	234655
#
# Disc length: 3398 seconds
#
# Revision: 1
# Processed by: cddbd v1.5.2PL0 Copyright (c) Steve Scherf et al.
# Submitted via: audiograbber 1.83.01
#
DISCID=e30d440f
DTITLE=Paul de Munnik - Nieuw
DYEAR=2016
DGENRE=Pop
TTITLE0=Nieuw
TTITLE1=Opeens Overal
TTITLE2=Er Is Er Altijd 1
TTITLE3=Gister nog (Hier encore)
TTITLE4=Geen Lied De Blues
TTITLE5=Wees De Lente
TTITLE6=Dan Denk Ik Aan Jou
TTITLE7=Het Komt Eraan
TTITLE8=Onderweg
TTITLE9=Ik Kan Jou Heel Erg Ongelukkig Maken
TTITLE10=Zoo Mooi
TTITLE11=Wachten (Voor Het Raam)
TTITLE12=Suzanne Wil Me Terug
TTITLE13=Laat Gaan
TTITLE14=Voor Eeuwig
EXTD=
EXTT0=
EXTT1=
EXTT2=
EXTT3=
EXTT4=
EXTT5=
EXTT6=
EXTT7=
EXTT8=
EXTT9=
EXTT10=
EXTT11=
EXTT12=
EXTT13=
EXTT14=
PLAYORDER=
